<svg xmlns="http://www.w3.org/2000/svg" width="5.18" height="5.18" viewBox="0 0 5.18 5.18"><defs><style>.a{fill:#c0ecfa;fill-rule:evenodd;}</style></defs><title>sec_1_cont_c_item_t_img3</title><path class="a" d="M2.59,0A2.59,2.59,0,1,1,.76.76,2.59,2.59,0,0,1,2.59,0Zm1.5,1.09A2.15,2.15,0,0,0,2.59.47,2.12,2.12,0,0,0,.47,2.59a2.15,2.15,0,0,0,.62,1.5,2.12,2.12,0,0,0,1.5.62A2.12,2.12,0,0,0,4.71,2.59,2.12,2.12,0,0,0,4.09,1.09Z"/><path class="a" d="M3.12,3.76l0,.17L2.79,4a.9.9,0,0,1-.25,0A.49.49,0,0,1,2.2,4a.38.38,0,0,1-.12-.28.62.62,0,0,1,0-.13,1,1,0,0,1,0-.15l.16-.54,0-.14a.62.62,0,0,0,0-.13c0-.07,0-.12,0-.14a.22.22,0,0,0-.16,0H2l-.11,0,0-.17.29-.1a.82.82,0,0,1,.26,0,.48.48,0,0,1,.33.1.35.35,0,0,1,.12.28.68.68,0,0,1,0,.12.41.41,0,0,1,0,.16l-.15.54,0,.14a1.05,1.05,0,0,0,0,.13.21.21,0,0,0,0,.15.34.34,0,0,0,.17,0,.27.27,0,0,0,.12,0l.1,0Zm0-2.24a.29.29,0,0,1-.1.23.35.35,0,0,1-.26.1.33.33,0,0,1-.25-.1.3.3,0,0,1-.11-.23.3.3,0,0,1,.11-.24.33.33,0,0,1,.25-.1.35.35,0,0,1,.26.1A.3.3,0,0,1,3.16,1.52Z"/></svg>