<svg xmlns="http://www.w3.org/2000/svg" width="4.47" height="4.47" viewBox="0 0 4.47 4.47"><defs><style>.a{fill:#c0ecfa;fill-rule:evenodd;}</style></defs><title>sec_1_cont_c_item_t_img1</title><path class="a" d="M3.75,1.35A1.54,1.54,0,0,0,2,0,1.54,1.54,0,0,0,.77,2a1.86,1.86,0,0,0,.41.74l.9,1a.2.2,0,0,0,.3,0l.7-.83a5.44,5.44,0,0,0,.45-.62,1.6,1.6,0,0,0,.22-.93ZM2.23,2.48a1,1,0,1,1,1-.95.95.95,0,0,1-1,1ZM4.44,4.4a.17.17,0,0,1-.14.07H.17A.17.17,0,0,1,0,4.4a.16.16,0,0,1,0-.15L.46,3a.16.16,0,0,1,.15-.12H.87a.24.24,0,0,0,.06.08l.22.26H.73L.4,4.13H4.07l-.33-.95H3.28l.05-.07.22-.27h.31A.16.16,0,0,1,4,3l.45,1.29A.16.16,0,0,1,4.44,4.4Z"/></svg>