<svg xmlns="http://www.w3.org/2000/svg" xmlns:xlink="http://www.w3.org/1999/xlink" xmlns:lucid="lucid" width="1760" height="1360"><g transform="translate(0 0)" lucid:page-tab-id="0_0"><path d="M0 0h1760v1360H0z" fill="#fff"/><path d="M360 45a5 5 0 0 1 5-5h270a5 5 0 0 1 5 5v190a5 5 0 0 1-5 5H365a5 5 0 0 1-5-5z" fill="#fff"/><path d="M360 80V45a5 5 0 0 1 5-5h270a5 5 0 0 1 5 5v35" fill="#ccc"/><path d="M360 45a5 5 0 0 1 5-5h270a5 5 0 0 1 5 5v190a5 5 0 0 1-5 5H365a5 5 0 0 1-5-5zM360 80h280M500 80v160" stroke="#333" fill="none"/><use xlink:href="#a" transform="matrix(1,0,0,1,370,40) translate(80.075 23.6)"/><use xlink:href="#b" transform="matrix(1,0,0,1,365,82.5) translate(0 17.1)"/><use xlink:href="#c" transform="matrix(1,0,0,1,505,82.5) translate(0 17.1)"/><use xlink:href="#d" transform="matrix(1,0,0,1,365,114.5) translate(0 17.1)"/><use xlink:href="#e" transform="matrix(1,0,0,1,505,114.5) translate(0 17.1)"/><use xlink:href="#f" transform="matrix(1,0,0,1,365,146.5) translate(0 17.1)"/><use xlink:href="#g" transform="matrix(1,0,0,1,505,146.5) translate(0 17.1)"/><use xlink:href="#h" transform="matrix(1,0,0,1,365,178.5) translate(0 17.1)"/><use xlink:href="#i" transform="matrix(1,0,0,1,505,178.5) translate(0 17.1)"/><use xlink:href="#j" transform="matrix(1,0,0,1,365,210.5) translate(0 17.1)"/><use xlink:href="#e" transform="matrix(1,0,0,1,505,210.5) translate(0 17.1)"/><path d="M360 985a5 5 0 0 1 5-5h270a5 5 0 0 1 5 5v126a5 5 0 0 1-5 5H365a5 5 0 0 1-5-5z" fill="#fff"/><path d="M360 1020v-35a5 5 0 0 1 5-5h270a5 5 0 0 1 5 5v35" fill="#ccc"/><path d="M360 985a5 5 0 0 1 5-5h270a5 5 0 0 1 5 5v126a5 5 0 0 1-5 5H365a5 5 0 0 1-5-5zM360 1020h280M500 1020v96" stroke="#333" fill="none"/><use xlink:href="#k" transform="matrix(1,0,0,1,370,980) translate(55.27499999999999 23.6)"/><use xlink:href="#l" transform="matrix(1,0,0,1,370,980) translate(174.575 23.6)"/><use xlink:href="#b" transform="matrix(1,0,0,1,365,1022.5) translate(0 17.1)"/><use xlink:href="#c" transform="matrix(1,0,0,1,505,1022.5) translate(0 17.1)"/><use xlink:href="#f" transform="matrix(1,0,0,1,365,1054.5) translate(0 17.1)"/><use xlink:href="#g" transform="matrix(1,0,0,1,505,1054.5) translate(0 17.1)"/><use xlink:href="#j" transform="matrix(1,0,0,1,365,1086.5) translate(0 17.1)"/><use xlink:href="#e" transform="matrix(1,0,0,1,505,1086.5) translate(0 17.1)"/><path d="M1140 505a5 5 0 0 1 5-5h270a5 5 0 0 1 5 5v190a5 5 0 0 1-5 5h-270a5 5 0 0 1-5-5z" fill="#fff"/><path d="M1140 540v-35a5 5 0 0 1 5-5h270a5 5 0 0 1 5 5v35" fill="#ccc"/><path d="M1140 505a5 5 0 0 1 5-5h270a5 5 0 0 1 5 5v190a5 5 0 0 1-5 5h-270a5 5 0 0 1-5-5zM1140 540h280M1280 540v160" stroke="#333" fill="none"/><use xlink:href="#m" transform="matrix(1,0,0,1,1150,500) translate(97.2 23.6)"/><use xlink:href="#b" transform="matrix(1,0,0,1,1145,542.5) translate(0 17.1)"/><use xlink:href="#c" transform="matrix(1,0,0,1,1285,542.5) translate(0 17.1)"/><use xlink:href="#d" transform="matrix(1,0,0,1,1145,574.5) translate(0 17.1)"/><use xlink:href="#e" transform="matrix(1,0,0,1,1285,574.5) translate(0 17.1)"/><use xlink:href="#f" transform="matrix(1,0,0,1,1145,606.5) translate(0 17.1)"/><use xlink:href="#g" transform="matrix(1,0,0,1,1285,606.5) translate(0 17.1)"/><use xlink:href="#h" transform="matrix(1,0,0,1,1145,638.5) translate(0 17.1)"/><use xlink:href="#i" transform="matrix(1,0,0,1,1285,638.5) translate(0 17.1)"/><use xlink:href="#j" transform="matrix(1,0,0,1,1145,670.5) translate(0 17.1)"/><use xlink:href="#e" transform="matrix(1,0,0,1,1285,670.5) translate(0 17.1)"/><path d="M360 505a5 5 0 0 1 5-5h270a5 5 0 0 1 5 5v190a5 5 0 0 1-5 5H365a5 5 0 0 1-5-5z" fill="#fff"/><path d="M360 540v-35a5 5 0 0 1 5-5h270a5 5 0 0 1 5 5v35" fill="#ccc"/><path d="M360 505a5 5 0 0 1 5-5h270a5 5 0 0 1 5 5v190a5 5 0 0 1-5 5H365a5 5 0 0 1-5-5zM360 540h280M500 540v160" stroke="#333" fill="none"/><use xlink:href="#n" transform="matrix(1,0,0,1,370,500) translate(98.075 23.6)"/><use xlink:href="#b" transform="matrix(1,0,0,1,365,542.5) translate(0 17.1)"/><use xlink:href="#c" transform="matrix(1,0,0,1,505,542.5) translate(0 17.1)"/><use xlink:href="#d" transform="matrix(1,0,0,1,365,574.5) translate(0 17.1)"/><use xlink:href="#e" transform="matrix(1,0,0,1,505,574.5) translate(0 17.1)"/><use xlink:href="#f" transform="matrix(1,0,0,1,365,606.5) translate(0 17.1)"/><use xlink:href="#g" transform="matrix(1,0,0,1,505,606.5) translate(0 17.1)"/><use xlink:href="#o" transform="matrix(1,0,0,1,365,638.5) translate(0 17.1)"/><use xlink:href="#e" transform="matrix(1,0,0,1,505,638.5) translate(0 17.1)"/><use xlink:href="#j" transform="matrix(1,0,0,1,365,670.5) translate(0 17.1)"/><use xlink:href="#e" transform="matrix(1,0,0,1,505,670.5) translate(0 17.1)"/><path d="M500 479.5v-219" stroke="#333" fill="none"/><path d="M490 499.28l10-20 10 20" stroke="#333" fill="#fff" fill-opacity="0"/><path d="M500 499.28v-20M510 479.28h-20" stroke="#333" fill="#fff"/><path d="M510 240.72l-10 20-10-20" stroke="#333" fill="#fff" fill-opacity="0"/><path d="M500 240.72v20M490 260.72h20" stroke="#333" fill="#fff"/><path d="M680 620h420" stroke="#333" fill="none"/><path d="M640.72 610l20 10-20 10" stroke="#333" fill="#fff" fill-opacity="0"/><path d="M640.72 620h20M680.72 620c0 5.52-4.47 10-10 10-5.52 0-10-4.48-10-10s4.48-10 10-10c5.53 0 10 4.48 10 10" stroke="#333" fill="#fff"/><path d="M1139.28 630l-20-10 20-10" stroke="#333" fill="#fff" fill-opacity="0"/><path d="M1139.28 620h-20M1119.28 620c0 5.52-4.48 10-10 10-5.53 0-10-4.48-10-10s4.47-10 10-10c5.52 0 10 4.48 10 10" stroke="#333" fill="#fff"/><path d="M500 720.5v239" stroke="#333" fill="none"/><path d="M490 710.5h20M500 700.5v20M490 720.5h20M510 969.5h-20M500 979.5v-20M510 959.5h-20" stroke="#333" fill="#fff"/><path d="M460 228a8 8 0 0 1 8-8h224a8 8 0 0 1 8 8v44a8 8 0 0 1-8 8H468a8 8 0 0 1-8-8z" stroke="#000" stroke-opacity="0" fill="#fff" fill-opacity="0"/><use xlink:href="#p" transform="matrix(1,0,0,1,465,225) translate(66.375 30.025)"/><path d="M460 694.67a8 8 0 0 1 8-8h224a8 8 0 0 1 8 8v44a8 8 0 0 1-8 8H468a8 8 0 0 1-8-8z" stroke="#000" stroke-opacity="0" fill="#fff" fill-opacity="0"/><use xlink:href="#q" transform="matrix(1,0,0,1,465,691.6666666666667) translate(54.875 30.025)"/><path d="M580 568a8 8 0 0 1 8-8h224a8 8 0 0 1 8 8v44a8 8 0 0 1-8 8H588a8 8 0 0 1-8-8z" stroke="#000" stroke-opacity="0" fill="#fff" fill-opacity="0"/><use xlink:href="#r" transform="matrix(1,0,0,1,585,565) translate(70.15 30.025)"/><path d="M460 468a8 8 0 0 1 8-8h224a8 8 0 0 1 8 8v44a8 8 0 0 1-8 8H468a8 8 0 0 1-8-8z" stroke="#000" stroke-opacity="0" fill="#fff" fill-opacity="0"/><use xlink:href="#s" transform="matrix(1,0,0,1,465,465) translate(57.12499999999999 30.025)"/><path d="M960 568a8 8 0 0 1 8-8h224a8 8 0 0 1 8 8v44a8 8 0 0 1-8 8H968a8 8 0 0 1-8-8z" stroke="#000" stroke-opacity="0" fill="#fff" fill-opacity="0"/><use xlink:href="#t" transform="matrix(1,0,0,1,965,565) translate(76.375 30.025)"/><path d="M460 948a8 8 0 0 1 8-8h224a8 8 0 0 1 8 8v44a8 8 0 0 1-8 8H468a8 8 0 0 1-8-8z" stroke="#000" stroke-opacity="0" fill="#fff" fill-opacity="0"/><use xlink:href="#q" transform="matrix(1,0,0,1,465,945) translate(54.875 30.025)"/><defs><path fill="#333" d="M179 0l43-219H87L45 0H11l48-248h202L213 0h-34" id="u"/><path fill="#333" d="M30-147c31-64 166-65 159 27C183-49 158 1 86 4 9 8 1-88 30-147zM88-20c53 0 68-48 68-100 0-31-11-51-44-50-52 1-68 46-68 97 0 32 13 53 44 53" id="v"/><path fill="#333" d="M44-68c0 29 11 47 38 47 30 0 42-19 51-41l28 9C148-21 126 4 82 4 31 4 10-29 12-85c3-77 74-140 146-93 12 8 15 23 18 40l-31 5c-1-22-13-36-36-36-52 0-65 49-65 101" id="w"/><path fill="#333" d="M248-111c6-24 9-61-24-58-72 9-57 108-77 169h-31l26-142c3-37-50-30-64-10C52-115 50-51 37 0H6l36-190h30c-1 10-6 24-4 32 13-43 101-52 105 5 13-22 29-41 61-41 90 0 28 129 23 194h-31" id="x"/><path fill="#333" d="M165-48c-4 18 1 34 23 27l-3 20c-29 8-62 0-52-35h-2C116-14 99 4 63 4 30 4 8-16 8-49c0-68 71-67 138-67 10-26 0-56-31-54-26 1-42 9-47 31l-32-5c8-67 160-71 144 15-5 28-9 54-15 81zM42-50c3 52 80 24 89-6 7-12 7-24 11-38-47 1-103-4-100 44" id="y"/><path fill="#333" d="M59-175c30-27 118-26 118 27 0 33-26 40-48 50 22 4 39 15 39 41C168 16 69 8 7-4c15-59 13-137 52-171zm76 119c0-34-43-32-81-31L42-23c39 4 93 9 93-33zm-41-54c49 12 71-58 17-58-36 0-47 25-52 58h35" id="z"/><path fill="#333" d="M161-79c-6 25-8 62 24 58 72-9 58-107 78-169h31L262-23h26l-19 95h-29l15-72h-27l5-33c-13 19-26 36-58 36-29 0-45-14-49-40C113-16 99 3 65 3c-91 0-29-128-24-193h31L46-48c-3 36 50 31 65 10 26-37 28-101 41-152h31" id="A"/><path fill="#333" d="M67 3c-93-2-31-127-26-193h32L48-50c-3 39 53 32 70 12 30-34 30-101 43-152h32L157 0h-30c1-10 6-24 4-33-14 20-29 37-64 36" id="B"/><path fill="#333" d="M43-190h32l-17 83c31-2 40-21 56-41l34-42h34l-65 76c-5 5-9 9-12 11L146 0h-32L80-88c-8 2-15 5-26 4L38 0H6" id="C"/><g id="a"><use transform="matrix(0.05,0,0,0.05,0,0)" xlink:href="#u"/><use transform="matrix(0.05,0,0,0.05,13,0)" xlink:href="#v"/><use transform="matrix(0.05,0,0,0.05,23,0)" xlink:href="#w"/><use transform="matrix(0.05,0,0,0.05,32,0)" xlink:href="#x"/><use transform="matrix(0.05,0,0,0.05,46.75,0)" xlink:href="#y"/><use transform="matrix(0.05,0,0,0.05,56.75,0)" xlink:href="#z"/><use transform="matrix(0.05,0,0,0.05,66.1,0)" xlink:href="#A"/><use transform="matrix(0.05,0,0,0.05,81.39999999999999,0)" xlink:href="#B"/><use transform="matrix(0.05,0,0,0.05,91.39999999999999,0)" xlink:href="#C"/></g><path fill="#333" d="M14 0l48-248h34L48 0H14" id="D"/><path fill="#333" d="M248-139C247-14 144 9 11 0l48-248c105-6 190 8 189 109zm-34 0c1-70-52-87-126-82L50-27c98 7 163-21 164-112" id="E"/><g id="b"><use transform="matrix(0.05,0,0,0.05,0,0)" xlink:href="#D"/><use transform="matrix(0.05,0,0,0.05,5,0)" xlink:href="#E"/><path fill="#333" d="M-.9 1.25h19.75v1.32H-.9z"/></g><path fill="#333" d="M50-231l6-30h32l-6 30H50zM6 0l37-190h31L37 0H6" id="F"/><path fill="#333" d="M67-158c22-48 132-52 116 29L158 0h-32l25-140c3-38-53-32-70-12C52-117 51-52 38 0H6l36-190h30" id="G"/><path fill="#333" d="M51-54c-9 22 5 41 31 30L79-1C43 14 10-4 19-52l22-115H19l5-23h22l19-43h21l-9 43h35l-4 23H73" id="H"/><g id="c"><use transform="matrix(0.05,0,0,0.05,0,0)" xlink:href="#F"/><use transform="matrix(0.05,0,0,0.05,3.95,0)" xlink:href="#G"/><use transform="matrix(0.05,0,0,0.05,13.949999999999998,0)" xlink:href="#H"/><path fill="#333" d="M-.9 1.25h20.75v1.32H-.9z"/></g><path fill="#333" d="M173 0L80-213 41 0H11l48-248h37l94 214 40-214h30L212 0h-39" id="I"/><path fill="#333" d="M165-48c-4 18 1 34 23 27l-3 20c-29 8-62 0-52-35h-2C116-14 99 4 63 4 30 4 8-16 8-49c0-68 71-67 138-67 10-26 0-56-31-54-26 1-42 9-47 31l-32-5c8-67 160-71 144 15-5 28-9 54-15 81zM42-50c3 52 80 24 89-6 7-12 7-24 11-38-47 1-103-4-100 44" id="J"/><path fill="#333" d="M248-111c6-24 9-61-24-58-72 9-57 108-77 169h-31l26-142c3-37-50-30-64-10C52-115 50-51 37 0H6l36-190h30c-1 10-6 24-4 32 13-43 101-52 105 5 13-22 29-41 61-41 90 0 28 129 23 194h-31" id="K"/><path fill="#333" d="M111-194c62-3 86 47 72 106H45c-7 38 6 69 45 68 27-1 43-14 53-32l24 11C152-15 129 4 87 4 38 3 12-23 12-71c0-70 32-119 99-123zm44 81c14-66-71-72-95-28-4 8-8 17-11 28h106" id="L"/><g id="d"><use transform="matrix(0.05,0,0,0.05,0,0)" xlink:href="#I"/><use transform="matrix(0.05,0,0,0.05,12.950000000000001,0)" xlink:href="#J"/><use transform="matrix(0.05,0,0,0.05,22.950000000000003,0)" xlink:href="#K"/><use transform="matrix(0.05,0,0,0.05,37.900000000000006,0)" xlink:href="#L"/></g><path fill="#333" d="M89 0H52L20-190h33L74-25l89-165h34" id="M"/><path fill="#333" d="M66-151c12-25 30-51 66-40l-6 26C45-176 58-65 38 0H6l36-190h30" id="N"/><path fill="#333" d="M44-68c0 29 11 47 38 47 30 0 42-19 51-41l28 9C148-21 126 4 82 4 31 4 10-29 12-85c3-77 74-140 146-93 12 8 15 23 18 40l-31 5c-1-22-13-36-36-36-52 0-65 49-65 101" id="O"/><path fill="#333" d="M67-158c15-20 31-36 64-36 94 0 33 127 27 194h-32l25-140c3-38-53-32-70-12C52-117 51-51 37 0H6l51-261h31" id="P"/><path fill="#333" d="M17-49c1-102 45-165 103-212h30C92-210 49-145 49-46 49 4 63 43 85 75H54C30 43 18 2 17-49" id="Q"/><path fill="#333" d="M148-71c0-36-31-44-71-41l5-28c46 3 81-6 81-50 0-23-15-35-39-35-30 0-49 17-56 41l-32-3c12-39 42-63 90-64 43 0 69 19 71 60 1 43-30 58-65 66 27 5 49 22 49 53 0 85-133 99-164 35-4-7-7-15-9-22l29-9c8 25 25 45 58 45 34 1 53-17 53-48" id="R"/><path fill="#333" d="M16-82c0-90 25-169 113-169 48 0 68 33 68 82C197-79 170 4 84 4 37 4 16-31 16-82zm30 5c0 32 11 55 40 55 69 0 76-79 80-149 2-32-10-55-39-55-69 0-81 81-81 149" id="S"/><path fill="#333" d="M98-137C97-35 54 29-4 75h-31C23 23 67-41 67-140c0-50-15-89-37-121h31c24 32 36 73 37 124" id="T"/><g id="e"><use transform="matrix(0.05,0,0,0.05,0,0)" xlink:href="#M"/><use transform="matrix(0.05,0,0,0.05,9,0)" xlink:href="#J"/><use transform="matrix(0.05,0,0,0.05,19,0)" xlink:href="#N"/><use transform="matrix(0.05,0,0,0.05,24.95,0)" xlink:href="#O"/><use transform="matrix(0.05,0,0,0.05,33.95,0)" xlink:href="#P"/><use transform="matrix(0.05,0,0,0.05,43.95,0)" xlink:href="#J"/><use transform="matrix(0.05,0,0,0.05,53.95,0)" xlink:href="#N"/><use transform="matrix(0.05,0,0,0.05,59.900000000000006,0)" xlink:href="#Q"/><use transform="matrix(0.05,0,0,0.05,65.85000000000001,0)" xlink:href="#R"/><use transform="matrix(0.05,0,0,0.05,75.85000000000001,0)" xlink:href="#S"/><use transform="matrix(0.05,0,0,0.05,85.85000000000001,0)" xlink:href="#T"/></g><path fill="#333" d="M67 3c-93-2-31-127-26-193h32L48-50c-3 39 53 32 70 12 30-34 30-101 43-152h32L157 0h-30c1-10 6-24 4-33-14 20-29 37-64 36" id="U"/><path fill="#333" d="M68-162c25-46 127-43 121 31C183-60 169 1 98 4 69 5 53-11 43-31L36 0H5l52-261h31zm88 36c2-27-9-43-34-43-55 0-70 51-70 103 0 29 15 45 43 46 52 0 58-58 61-106" id="V"/><g id="f"><use transform="matrix(0.05,0,0,0.05,0,0)" xlink:href="#I"/><use transform="matrix(0.05,0,0,0.05,12.950000000000001,0)" xlink:href="#U"/><use transform="matrix(0.05,0,0,0.05,22.950000000000003,0)" xlink:href="#K"/><use transform="matrix(0.05,0,0,0.05,37.900000000000006,0)" xlink:href="#V"/><use transform="matrix(0.05,0,0,0.05,47.900000000000006,0)" xlink:href="#L"/><use transform="matrix(0.05,0,0,0.05,57.900000000000006,0)" xlink:href="#N"/></g><g id="g"><use transform="matrix(0.05,0,0,0.05,0,0)" xlink:href="#F"/><use transform="matrix(0.05,0,0,0.05,3.95,0)" xlink:href="#G"/><use transform="matrix(0.05,0,0,0.05,13.949999999999998,0)" xlink:href="#H"/></g><path fill="#333" d="M187 0l-14-72H61L19 0h-37l149-248h38L221 0h-34zm-19-99l-22-123L76-99h92" id="W"/><path fill="#333" d="M133-28C103 26-5 8 13-77c13-62 24-115 90-117 29-1 46 15 56 35l19-102h32L160 0h-30zM45-64c-2 27 10 43 35 43 54-1 69-50 69-103 0-29-15-46-42-46-53-1-58 58-62 106" id="X"/><path fill="#333" d="M55-144c13 50 104 24 104 88C159 21 15 23 1-39l26-10c6 40 102 42 102-4-13-50-104-23-104-87 0-71 143-71 148-8l-29 4c-5-35-85-37-89 0" id="Y"/><g id="h"><use transform="matrix(0.05,0,0,0.05,0,0)" xlink:href="#W"/><use transform="matrix(0.05,0,0,0.05,12,0)" xlink:href="#X"/><use transform="matrix(0.05,0,0,0.05,22,0)" xlink:href="#X"/><use transform="matrix(0.05,0,0,0.05,32,0)" xlink:href="#N"/><use transform="matrix(0.05,0,0,0.05,37.95,0)" xlink:href="#L"/><use transform="matrix(0.05,0,0,0.05,47.95,0)" xlink:href="#Y"/><use transform="matrix(0.05,0,0,0.05,56.95,0)" xlink:href="#Y"/></g><path fill="#333" d="M151-85c6-55-69-56-94-29H26l34-134h141l-5 27H84l-20 79c41-34 127-11 121 53C199 13 30 38 8-54l29-8C52 0 159-13 151-85" id="Z"/><g id="i"><use transform="matrix(0.05,0,0,0.05,0,0)" xlink:href="#M"/><use transform="matrix(0.05,0,0,0.05,9,0)" xlink:href="#J"/><use transform="matrix(0.05,0,0,0.05,19,0)" xlink:href="#N"/><use transform="matrix(0.05,0,0,0.05,24.95,0)" xlink:href="#O"/><use transform="matrix(0.05,0,0,0.05,33.95,0)" xlink:href="#P"/><use transform="matrix(0.05,0,0,0.05,43.95,0)" xlink:href="#J"/><use transform="matrix(0.05,0,0,0.05,53.95,0)" xlink:href="#N"/><use transform="matrix(0.05,0,0,0.05,59.900000000000006,0)" xlink:href="#Q"/><use transform="matrix(0.05,0,0,0.05,65.85000000000001,0)" xlink:href="#Z"/><use transform="matrix(0.05,0,0,0.05,75.85000000000001,0)" xlink:href="#S"/><use transform="matrix(0.05,0,0,0.05,85.85000000000001,0)" xlink:href="#T"/></g><path fill="#333" d="M151-220L108 0H75l42-220H32l6-28h203l-5 28h-85" id="aa"/><path fill="#333" d="M198-190L69 30C53 58 25 83-20 72c4-11-1-27 19-22 33-1 43-29 59-52L20-190h32L79-34l84-156h35" id="ab"/><path fill="#333" d="M67-162c32-53 139-36 121 50C175-51 163 2 97 4 68 4 52-11 42-31 38 6 28 39 22 75H-9l50-265h29c-1 10 0 20-3 28zm89 36c0-26-10-43-35-43-54 0-67 50-69 103-1 29 14 45 42 46 53 0 62-58 62-106" id="ac"/><g id="j"><use transform="matrix(0.05,0,0,0.05,0,0)" xlink:href="#aa"/><use transform="matrix(0.05,0,0,0.05,9.600000000000001,0)" xlink:href="#ab"/><use transform="matrix(0.05,0,0,0.05,18.6,0)" xlink:href="#ac"/><use transform="matrix(0.05,0,0,0.05,28.6,0)" xlink:href="#L"/></g><path fill="#333" d="M67-162c32-53 139-36 121 50C175-51 163 2 97 4 68 4 52-11 42-31 38 6 28 39 22 75H-9l50-265h29c-1 10 0 20-3 28zm89 36c0-26-10-43-35-43-54 0-67 50-69 103-1 29 14 45 42 46 53 0 62-58 62-106" id="ad"/><path fill="#333" d="M111-194c62-3 86 47 72 106H45c-7 38 6 69 45 68 27-1 43-14 53-32l24 11C152-15 129 4 87 4 38 3 12-23 12-71c0-70 32-119 99-123zm44 81c14-66-71-72-95-28-4 8-8 17-11 28h106" id="ae"/><path fill="#333" d="M191-260c-7 48-95 68-125 25-4-5-7-12-10-19l26-10c8 17 18 33 43 32 26-1 40-15 48-34zM67 3c-93-2-31-127-26-193h32L48-50c-3 39 53 32 70 12 30-34 30-101 43-152h32L157 0h-30c1-10 6-24 4-33-14 20-29 37-64 36" id="af"/><path fill="#333" d="M198-190L69 30C53 58 25 83-20 72c4-11-1-27 19-22 33-1 43-29 59-52L20-190h32L79-34l84-156h35" id="ag"/><path fill="#333" d="M75-190l-16 80h85l15-80h32L154 0h-31l16-87H54L38 0H6l37-190h32" id="ah"/><g id="k"><use transform="matrix(0.05,0,0,0.05,0,0)" xlink:href="#u"/><use transform="matrix(0.05,0,0,0.05,13,0)" xlink:href="#ad"/><use transform="matrix(0.05,0,0,0.05,23,0)" xlink:href="#ae"/><use transform="matrix(0.05,0,0,0.05,33,0)" xlink:href="#af"/><use transform="matrix(0.05,0,0,0.05,43,0)" xlink:href="#w"/><use transform="matrix(0.05,0,0,0.05,52,0)" xlink:href="#C"/><use transform="matrix(0.05,0,0,0.05,60.45,0)" xlink:href="#ag"/><use transform="matrix(0.05,0,0,0.05,69.45,0)" xlink:href="#ad"/><use transform="matrix(0.05,0,0,0.05,79.45,0)" xlink:href="#y"/><use transform="matrix(0.05,0,0,0.05,89.45,0)" xlink:href="#ah"/><use transform="matrix(0.05,0,0,0.05,99.35000000000001,0)" xlink:href="#x"/></g><path fill="#333" d="M68 3c-93-2-32-129-26-193h31L48-50c-2 38 54 32 71 12 30-35 29-101 43-152h32L161-23h26l-19 95h-28l14-72h-26c-1-12 6-25 4-33-14 20-29 37-64 36" id="ai"/><g id="l"><use transform="matrix(0.05,0,0,0.05,0,0)" xlink:href="#ai"/><use transform="matrix(0.05,0,0,0.05,10.25,0)" xlink:href="#ae"/><use transform="matrix(0.05,0,0,0.05,20.25,0)" xlink:href="#ah"/></g><path fill="#333" d="M99-119c-9 3-21 5-32 6L45 0H11l48-248h34L72-139c41-1 55-33 74-55l47-54h36c-35 37-64 80-103 112L189 0h-37" id="aj"/><path fill="#333" d="M-12-22c37 7 42-31 52-61l37-107h119L159 0h-32l32-167h-58C80-114 67-49 35-9 25 4 1 8-17 0" id="ak"/><g id="m"><use transform="matrix(0.05,0,0,0.05,0,0)" xlink:href="#aj"/><use transform="matrix(0.05,0,0,0.05,10.600000000000001,0)" xlink:href="#ak"/><use transform="matrix(0.05,0,0,0.05,20.75,0)" xlink:href="#B"/><use transform="matrix(0.05,0,0,0.05,30.75,0)" xlink:href="#ae"/><use transform="matrix(0.05,0,0,0.05,40.75,0)" xlink:href="#ah"/><use transform="matrix(0.05,0,0,0.05,50.65,0)" xlink:href="#x"/></g><path fill="#333" d="M222 0l43-216c-8 16-17 34-26 49L143 0h-22L81-216 41 0H11l48-248h42l38 208 116-208h45L252 0h-30" id="al"/><path fill="#333" d="M188-155C184-77 168 4 86 4 35 4 7-29 12-84c5-54 32-96 89-96 26 0 46 10 57 26 8-58-28-99-83-80l-8-21c71-22 125 22 121 100zM45-81c-13 59 60 82 88 39 21-32 36-117-27-115-45 2-52 36-61 76" id="am"/><path fill="#333" d="M59-110c54-1 108-1 109 51C169 15 70 9 7-4l36-186h32zm76 54c0-36-44-31-81-31L42-23c39 4 93 9 93-33" id="an"/><g id="n"><use transform="matrix(0.05,0,0,0.05,0,0)" xlink:href="#al"/><use transform="matrix(0.05,0,0,0.05,14.950000000000001,0)" xlink:href="#v"/><use transform="matrix(0.05,0,0,0.05,24.950000000000003,0)" xlink:href="#am"/><use transform="matrix(0.05,0,0,0.05,34.85,0)" xlink:href="#ae"/><use transform="matrix(0.05,0,0,0.05,44.25,0)" xlink:href="#ak"/><use transform="matrix(0.05,0,0,0.05,54.400000000000006,0)" xlink:href="#an"/></g><path fill="#333" d="M87-220l-18 92h140l-5 28H64L45 0H11l48-248h178l-5 28H87" id="ao"/><g id="o"><use transform="matrix(0.05,0,0,0.05,0,0)" xlink:href="#ao"/><use transform="matrix(0.05,0,0,0.05,10.950000000000001,0)" xlink:href="#F"/><use transform="matrix(0.05,0,0,0.05,14.9,0)" xlink:href="#N"/><use transform="matrix(0.05,0,0,0.05,20.85,0)" xlink:href="#K"/></g><path fill="#333" d="M197 0v-219H63V0H30v-248h201V0h-34" id="ap"/><path fill="#333" d="M115-194c55 1 70 41 70 98S169 2 115 4C84 4 66-9 55-30l1 105H24l-1-265h31l2 30c10-21 28-34 59-34zm-8 174c40 0 45-34 45-75s-6-73-45-74c-42 0-51 32-51 76 0 43 10 73 51 73" id="aq"/><path fill="#333" d="M100-194c63 0 86 42 84 106H49c0 40 14 67 53 68 26 1 43-12 49-29l28 8c-11 28-37 45-77 45C44 4 14-33 15-96c1-61 26-98 85-98zm52 81c6-60-76-77-97-28-3 7-6 17-6 28h103" id="ar"/><path fill="#333" d="M147-167H93C83-118 77-63 59-23h88v-144zM24-23c26-44 31-102 41-167h113v167h26v95h-29V0H32v72H4v-95h20" id="as"/><path fill="#333" d="M153 0v-167H87C74-108 81-27 38 0 29 5 12 6 2 1v-22c51 4 39-64 49-112 5-25 4-25 8-57h126V0h-32" id="at"/><path fill="#333" d="M141-36C126-15 110 5 73 4 37 3 15-17 15-53c-1-64 63-63 125-63 3-35-9-54-41-54-24 1-41 7-42 31l-33-3c5-37 33-52 76-52 45 0 72 20 72 64v82c-1 20 7 32 28 27v20c-31 9-61-2-59-35zM48-53c0 20 12 33 32 33 41-3 63-29 60-74-43 2-92-5-92 41" id="au"/><path fill="#333" d="M121-190v23H57V0H25v-190h96" id="av"/><path fill="#333" d="M6-190h153v23H98V0H67v-167H6v-23" id="aw"/><g id="p"><use transform="matrix(0.05,0,0,0.05,0,0)" xlink:href="#ap"/><use transform="matrix(0.05,0,0,0.05,12.9,0)" xlink:href="#aq"/><use transform="matrix(0.05,0,0,0.05,22.9,0)" xlink:href="#ar"/><use transform="matrix(0.05,0,0,0.05,32.5,0)" xlink:href="#as"/><use transform="matrix(0.05,0,0,0.05,43,0)" xlink:href="#at"/><use transform="matrix(0.05,0,0,0.05,53.5,0)" xlink:href="#au"/><use transform="matrix(0.05,0,0,0.05,63.5,0)" xlink:href="#av"/><use transform="matrix(0.05,0,0,0.05,69.65,0)" xlink:href="#au"/><use transform="matrix(0.05,0,0,0.05,79.65,0)" xlink:href="#ar"/><use transform="matrix(0.05,0,0,0.05,89.05000000000001,0)" xlink:href="#aw"/></g><path fill="#333" d="M212-179c-10-28-35-45-73-45-59 0-87 40-87 99 0 60 29 101 89 101 43 0 62-24 78-52l27 14C228-24 195 4 139 4 59 4 22-46 18-125c-6-104 99-153 187-111 19 9 31 26 39 46" id="ax"/><path fill="#333" d="M100-194c62-1 85 37 85 99 1 63-27 99-86 99S16-35 15-95c0-66 28-99 85-99zM99-20c44 1 53-31 53-75 0-43-8-75-51-75s-53 32-53 75 10 74 51 75" id="ay"/><path fill="#333" d="M176-55C176 11 93 0 25 0v-190c61 3 142-15 144 47 1 29-21 35-39 44 27 3 46 16 46 44zm-34 0c0-41-47-30-85-32v64c38-1 85 8 85-32zm-6-83c0-36-44-26-79-28v56c34-2 79 8 79-28" id="az"/><path fill="#333" d="M96-169c-40 0-48 33-48 73s9 75 48 75c24 0 41-14 43-38l32 2c-6 37-31 61-74 61-59 0-76-41-82-99-10-93 101-131 147-64 4 7 5 14 7 22l-32 3c-4-21-16-35-41-35" id="aA"/><path fill="#333" d="M179-190L93 31C79 59 56 82 12 73V49c39 6 53-20 64-50L1-190h34L92-34l54-156h33" id="aB"/><g id="q"><use transform="matrix(0.05,0,0,0.05,0,0)" xlink:href="#ax"/><use transform="matrix(0.05,0,0,0.05,12.950000000000001,0)" xlink:href="#ay"/><use transform="matrix(0.05,0,0,0.05,22.950000000000003,0)" xlink:href="#ay"/><use transform="matrix(0.05,0,0,0.05,32.550000000000004,0)" xlink:href="#aw"/><use transform="matrix(0.05,0,0,0.05,40.75000000000001,0)" xlink:href="#az"/><use transform="matrix(0.05,0,0,0.05,50.10000000000001,0)" xlink:href="#ar"/><use transform="matrix(0.05,0,0,0.05,59.5,0)" xlink:href="#aw"/><use transform="matrix(0.05,0,0,0.05,67.5,0)" xlink:href="#aA"/><use transform="matrix(0.05,0,0,0.05,76.5,0)" xlink:href="#aw"/><use transform="matrix(0.05,0,0,0.05,84.7,0)" xlink:href="#az"/><use transform="matrix(0.05,0,0,0.05,93.85,0)" xlink:href="#aB"/><use transform="matrix(0.05,0,0,0.05,102.64999999999998,0)" xlink:href="#ar"/><use transform="matrix(0.05,0,0,0.05,112.05000000000001,0)" xlink:href="#aw"/></g><path fill="#333" d="M100-194c63 0 86 42 84 106H49c0 40 14 67 53 68 26 1 43-12 49-29l28 8c-11 28-37 45-77 45C44 4 14-33 15-96c1-61 26-98 85-98zm52 81c6-60-76-77-97-28-3 7-6 17-6 28h103zm-31-101v-33h29v33h-29zm-69 0v-33h29v33H52" id="aC"/><path fill="#333" d="M20-138c-1-64 85-51 150-52V0h-32v-81H94L39 0H3l60-83c-28-5-43-24-43-55zm33 3c0 40 46 33 85 33v-66c-39 0-85-6-85 33" id="aD"/><g id="r"><use transform="matrix(0.05,0,0,0.05,0,0)" xlink:href="#ap"/><use transform="matrix(0.05,0,0,0.05,12.9,0)" xlink:href="#aq"/><use transform="matrix(0.05,0,0,0.05,22.9,0)" xlink:href="#ay"/><use transform="matrix(0.05,0,0,0.05,32.5,0)" xlink:href="#as"/><use transform="matrix(0.05,0,0,0.05,43,0)" xlink:href="#au"/><use transform="matrix(0.05,0,0,0.05,53,0)" xlink:href="#aC"/><use transform="matrix(0.05,0,0,0.05,63,0)" xlink:href="#aw"/><use transform="matrix(0.05,0,0,0.05,71,0)" xlink:href="#aA"/><use transform="matrix(0.05,0,0,0.05,80,0)" xlink:href="#aD"/></g><g id="s"><use transform="matrix(0.05,0,0,0.05,0,0)" xlink:href="#ap"/><use transform="matrix(0.05,0,0,0.05,12.9,0)" xlink:href="#aq"/><use transform="matrix(0.05,0,0,0.05,22.9,0)" xlink:href="#ar"/><use transform="matrix(0.05,0,0,0.05,32.5,0)" xlink:href="#as"/><use transform="matrix(0.05,0,0,0.05,43,0)" xlink:href="#at"/><use transform="matrix(0.05,0,0,0.05,53.5,0)" xlink:href="#au"/><use transform="matrix(0.05,0,0,0.05,63.5,0)" xlink:href="#av"/><use transform="matrix(0.05,0,0,0.05,69.65,0)" xlink:href="#au"/><use transform="matrix(0.05,0,0,0.05,79.65,0)" xlink:href="#ar"/><use transform="matrix(0.05,0,0,0.05,89.05000000000001,0)" xlink:href="#aw"/><use transform="matrix(0.05,0,0,0.05,97.05000000000001,0)" xlink:href="#aA"/><use transform="matrix(0.05,0,0,0.05,106.05000000000001,0)" xlink:href="#aD"/></g><path fill="#333" d="M75-87c-4 1-14 3-19 3V0H24v-190h32v83c26-2 31-21 43-41l26-42h33l-61 86L159 0h-35" id="aE"/><path fill="#333" d="M170-190V0h-32v-167H57V0H25v-190h145" id="aF"/><g id="t"><use transform="matrix(0.05,0,0,0.05,0,0)" xlink:href="#ap"/><use transform="matrix(0.05,0,0,0.05,12.9,0)" xlink:href="#ay"/><use transform="matrix(0.05,0,0,0.05,22.9,0)" xlink:href="#aE"/><use transform="matrix(0.05,0,0,0.05,30.950000000000003,0)" xlink:href="#aB"/><use transform="matrix(0.05,0,0,0.05,39.95,0)" xlink:href="#aF"/><use transform="matrix(0.05,0,0,0.05,49.650000000000006,0)" xlink:href="#au"/><use transform="matrix(0.05,0,0,0.05,59.650000000000006,0)" xlink:href="#ar"/><use transform="matrix(0.05,0,0,0.05,69.05000000000001,0)" xlink:href="#aw"/></g></defs></g></svg>